<?xml version="1.0" standalone="no"?>
<!DOCTYPE svg PUBLIC "-//W3C//DTD SVG 20010904//EN"
 "http://www.w3.org/2000/svg">
<svg version="1.0" xmlns="http://www.w3.org/2000/svg"
 width="24.000000pt" height="24.000000pt" viewBox="0 0 220.000000 220.000000"
 preserveAspectRatio="xMidYMid meet">

<g transform="translate(0.000000,220.000000) scale(0.100000,-0.100000)"
fill="#008000" stroke="none">
<path d="M945 2153 c-83 -4 -100 -9 -131 -38 -15 -14 -38 -25 -50 -25 -32 0
-61 -31 -91 -98 -30 -68 -25 -109 23 -200 18 -34 31 -71 29 -82 -3 -13 1 -17
11 -13 8 3 14 4 15 2 0 -2 3 -26 5 -54 6 -64 33 -151 50 -166 15 -12 19 -30 7
-27 -5 1 -34 -6 -65 -16 -44 -13 -66 -28 -96 -62 -22 -24 -45 -44 -51 -44 -7
0 -9 5 -6 10 3 6 0 17 -9 25 -9 9 -17 11 -21 5 -3 -5 -1 -10 4 -10 6 0 11 -5
11 -10 0 -6 -8 -5 -19 2 -11 7 -17 16 -15 20 3 5 2 8 -3 6 -4 -1 -24 6 -44 16
-30 15 -42 16 -77 7 -23 -7 -42 -16 -42 -21 0 -6 -4 -10 -10 -10 -5 0 -8 6 -6
13 1 6 1 9 -1 6 -2 -3 -14 -4 -27 -2 -18 4 -25 -1 -29 -19 -6 -22 8 -146 21
-178 3 -8 6 -19 7 -25 0 -5 6 -9 12 -8 6 1 20 -9 33 -22 20 -21 21 -26 8 -44
-8 -12 -18 -18 -23 -13 -5 4 -5 1 0 -7 7 -12 10 -11 22 4 19 27 16 4 -3 -23
-15 -22 -17 -22 -31 -5 -13 16 -13 16 -2 -6 10 -21 8 -26 -12 -42 -32 -25 -38
-24 -45 8 -3 16 -10 39 -15 53 -6 19 -7 15 -2 -15 3 -22 9 -47 14 -56 4 -8 3
-22 -2 -30 -13 -20 -11 -29 5 -29 8 0 16 -3 19 -7 2 -5 3 -3 1 3 -1 7 9 22 23
35 39 36 75 99 70 120 -8 29 6 30 37 4 28 -24 28 -24 12 -65 -9 -22 -40 -64
-69 -93 -54 -56 -81 -113 -93 -200 -10 -71 21 -124 118 -203 80 -64 103 -73
139 -54 10 6 19 9 19 8 0 -2 -7 -25 -15 -51 -8 -26 -10 -45 -5 -42 13 8 33 74
27 89 -3 8 3 22 14 32 10 9 19 15 19 13 0 -2 -7 -40 -15 -84 -15 -84 -18 -239
-5 -290 5 -19 8 16 9 96 1 119 27 311 51 373 l9 26 63 -24 c38 -14 62 -29 61
-37 0 -8 -20 -63 -42 -122 -23 -59 -39 -112 -35 -118 3 -6 18 -9 33 -6 l26 6
-7 -112 c-4 -62 -10 -124 -12 -139 -7 -36 0 -35 19 2 10 20 15 58 15 124 0 91
22 242 37 257 5 5 7 -20 6 -54 0 -34 -2 -105 -3 -157 -2 -56 -7 -98 -14 -102
-10 -7 87 -1 130 7 11 3 40 20 65 40 52 41 102 46 171 16 42 -18 58 -40 82
-111 2 -8 5 17 5 56 1 70 1 71 26 66 l25 -4 -7 94 -6 95 49 6 c118 15 167 43
226 129 l43 63 8 -80 c12 -125 29 -247 34 -242 2 3 -1 51 -6 108 -19 187 -17
232 12 271 14 18 44 72 65 118 l39 85 7 -175 c5 -109 3 -201 -3 -245 -6 -38
-10 -106 -10 -150 l1 -80 19 74 c10 41 21 76 24 79 2 3 16 -19 29 -48 32 -69
33 -64 41 215 8 277 17 367 49 480 21 74 25 113 25 219 1 71 -2 127 -5 123 -3
-3 -5 -57 -5 -120 1 -68 -3 -126 -10 -143 -7 -16 -11 -37 -10 -47 1 -10 -3
-24 -9 -32 -7 -8 -10 -18 -7 -22 2 -4 1 -17 -4 -28 -7 -18 -8 -17 -7 5 0 64
-24 319 -35 355 -6 22 -11 45 -12 52 0 15 -13 28 -28 28 -7 1 -11 7 -9 14 1 7
-2 10 -7 7 -12 -8 -42 34 -35 46 3 5 2 8 -3 7 -4 -1 -21 3 -38 10 -67 28 -210
53 -287 49 -42 -2 -75 -2 -73 0 2 2 -5 19 -16 38 -23 42 -24 51 -4 34 10 -9
15 -9 15 -1 0 10 -15 15 -23 9 -2 -2 -11 5 -20 14 -20 19 -22 55 -5 95 6 15
10 34 9 41 -1 8 5 25 14 39 10 14 12 22 6 19 -7 -5 -12 7 -13 36 -1 24 -2 57
-3 75 -2 35 -50 98 -74 98 -8 0 -16 6 -19 13 -2 7 2 10 12 6 9 -3 16 -3 16 0
0 4 -11 11 -25 16 -14 5 -25 16 -25 25 0 8 -15 24 -32 35 -34 20 -64 22 -233
13z m214 -18 c32 -16 60 -75 37 -75 -8 0 -44 9 -80 21 -52 15 -93 20 -182 20
-62 0 -114 1 -114 4 0 15 58 30 140 36 159 10 170 10 199 -6z m-149 -49 c0 -2
-21 -16 -46 -31 -62 -36 -234 -209 -234 -235 0 -30 -14 -24 -33 14 -29 61 -31
99 -7 154 30 68 47 82 121 91 69 9 199 14 199 7z m138 -36 c54 -17 105 -37
115 -44 20 -15 37 -66 37 -110 0 -26 -2 -28 -27 -22 -77 16 -78 16 -44 0 19
-8 43 -16 53 -17 13 -1 18 -9 18 -33 0 -38 -16 -47 -62 -33 -18 5 -37 9 -43 8
-18 -1 49 -28 73 -29 25 0 27 -8 10 -45 -6 -14 -20 -25 -32 -26 -21 0 -21 -1
-1 -9 17 -8 16 -9 -9 -9 -19 -1 -58 20 -124 66 -54 37 -132 81 -181 100 -47
19 -92 37 -99 40 -9 4 -10 9 -1 19 16 20 41 17 111 -11 34 -14 63 -23 65 -21
7 7 -101 56 -124 56 -13 0 -23 4 -23 9 0 23 157 141 188 141 2 0 47 -14 100
-30z m-218 -220 c76 -31 152 -86 171 -123 14 -25 16 -111 5 -180 -7 -43 -12
-50 -41 -63 -39 -16 -62 -10 -70 16 -3 10 -23 29 -43 41 -21 12 -31 24 -24 26
6 3 12 12 12 20 0 11 -4 13 -12 6 -14 -11 -33 -14 -83 -14 -25 0 -28 -2 -15
-12 9 -7 16 -31 17 -56 l1 -43 -20 33 c-29 47 -48 106 -48 146 0 48 33 43 40
-7 5 -33 6 -34 13 -10 20 73 2 120 -48 120 -38 0 -50 20 -39 67 17 71 69 81
184 33z m-124 -135 c18 -14 18 -14 -8 -15 -18 0 -28 5 -28 15 0 19 11 19 36 0z
m401 -42 c6 -17 -18 -27 -28 -12 -5 8 -9 17 -9 21 0 10 34 2 37 -9z m131 -118
c-2 -2 -23 -13 -48 -25 -95 -48 -258 -243 -320 -383 -12 -26 -23 -47 -25 -47
-16 0 0 64 24 101 16 24 35 65 41 92 9 35 17 47 31 47 14 0 21 9 26 31 4 20
15 35 32 42 36 16 85 56 87 73 1 8 27 42 58 75 31 33 56 66 57 72 0 7 9 -8 20
-32 11 -24 18 -45 17 -46z m-118 13 c-11 -18 -29 -44 -41 -58 l-20 -25 7 25
c8 29 52 90 65 90 5 0 -1 -15 -11 -32z m-282 -46 c8 -5 -5 -9 -33 -9 -25 0
-45 4 -45 9 0 10 61 10 78 0z m662 1 c0 -5 -17 -17 -38 -29 -20 -11 -36 -26
-34 -32 1 -7 -4 -12 -12 -12 -16 0 -70 -63 -106 -125 -13 -22 -47 -76 -75
-120 -29 -44 -62 -107 -75 -140 -25 -63 -60 -114 -44 -65 4 14 13 44 19 68 6
23 14 39 18 36 4 -4 7 0 7 9 0 38 107 223 165 286 84 90 175 155 175 124z
m-613 -45 c18 -40 -13 -54 -49 -21 -15 14 -23 15 -37 6 -18 -11 -31 -8 -31 7
0 3 23 12 50 19 32 8 48 17 44 24 -5 8 -4 9 3 2 5 -5 14 -22 20 -37z m333 28
c0 -2 -8 -10 -17 -17 -16 -13 -17 -12 -4 4 13 16 21 21 21 13z m431 -37 c74
-80 88 -108 94 -189 l5 -75 -14 63 c-22 93 -64 171 -114 209 -28 21 -37 33
-26 33 9 0 34 -18 55 -41z m-404 -2 c-2 -7 -29 -46 -58 -88 -30 -41 -61 -88
-69 -104 -8 -17 -18 -32 -21 -35 -3 -3 -26 -43 -49 -90 -49 -97 -48 -95 -55
-88 -19 18 106 272 161 329 19 19 31 39 27 44 -5 4 -3 5 3 2 6 -3 21 5 35 18
28 28 33 30 26 12z m-525 -40 c-15 -16 -22 -36 -22 -64 0 -57 -21 -76 -74 -68
-43 6 -96 24 -96 32 0 2 11 19 25 38 26 33 106 75 144 75 11 0 23 5 26 11 4 6
10 8 13 5 3 -4 -4 -16 -16 -29z m54 -74 c6 -111 -18 -188 -66 -214 -28 -16
-31 -19 -13 -19 12 0 25 -5 29 -12 4 -6 3 -8 -3 -5 -6 4 -13 0 -17 -8 -13 -34
-116 -74 -116 -45 0 6 -15 10 -34 10 -38 0 -176 68 -220 108 -24 23 -56 78
-56 97 0 3 19 -15 43 -39 24 -24 59 -52 78 -61 33 -17 32 -16 -10 21 -51 44
-101 110 -101 133 0 10 15 1 43 -26 48 -46 136 -107 143 -100 3 3 -22 24 -55
48 -61 43 -121 114 -121 143 0 24 13 19 51 -20 18 -20 48 -43 64 -51 17 -9 47
-30 67 -46 21 -17 41 -28 44 -24 3 3 -30 30 -73 61 -43 31 -86 67 -96 81 -17
24 -17 25 1 25 10 0 43 -17 73 -39 93 -66 149 -91 204 -91 60 0 75 12 75 60 0
53 9 77 33 88 12 5 23 8 25 7 2 -2 5 -38 8 -82z m800 42 c43 -19 53 -29 59
-55 4 -18 17 -47 30 -65 35 -53 42 -170 15 -276 -26 -107 -103 -258 -182 -362
-117 -151 -136 -163 -268 -174 -54 -4 -82 1 -160 25 -196 62 -287 95 -370 132
-47 22 -97 42 -112 46 -18 4 -28 13 -28 25 0 53 104 287 167 377 42 59 46 62
62 48 21 -19 121 -61 171 -71 20 -5 50 -23 71 -45 l36 -37 -29 -32 c-15 -17
-28 -37 -28 -43 0 -7 14 4 31 25 17 20 36 37 44 37 7 0 35 -24 61 -52 l47 -53
-26 46 c-15 25 -27 48 -27 52 0 3 25 11 55 17 71 15 71 24 -1 17 -69 -7 -68 5
4 52 45 29 57 44 98 130 50 101 110 198 152 243 29 31 44 30 128 -7z m-1319
-22 c2 -6 -3 -13 -12 -16 -10 -5 -15 0 -15 14 0 21 21 22 27 2z m697 -7 c-3
-9 -14 -16 -24 -16 -19 0 -30 -19 -30 -53 -1 -12 -7 -33 -15 -47 -14 -24 -14
-23 -15 27 0 50 2 53 43 81 46 32 50 33 41 8z m-135 -1 c23 -11 30 -23 35 -59
9 -61 -8 -127 -32 -119 -39 14 -42 23 -22 64 25 48 25 64 -1 100 -23 33 -20
35 20 14z m-539 -19 c0 -3 -5 -17 -12 -33 -6 -15 -12 -34 -14 -41 -5 -26 -14
-25 -14 1 0 34 17 77 30 77 5 0 10 -2 10 -4z m530 -38 c0 -7 -5 -20 -10 -28
-8 -11 -9 -9 -8 13 2 26 18 40 18 15z m20 -160 c0 -9 -5 -20 -12 -24 -14 -9
-48 31 -48 57 0 17 1 17 30 1 16 -9 30 -25 30 -34z m927 30 c-3 -8 -6 -5 -6 6
-1 11 2 17 5 13 3 -3 4 -12 1 -19z m-851 -76 c-17 -16 -18 -16 -5 5 7 12 15
20 18 17 3 -2 -3 -12 -13 -22z m-412 -56 c28 -21 82 -116 66 -116 -24 0 -107
81 -122 118 l-16 42 21 -12 c12 -6 35 -21 51 -32z m-68 -22 c3 -19 10 -37 14
-39 5 -3 6 -21 3 -40 -4 -24 1 -43 16 -68 14 -23 21 -51 21 -84 0 -31 5 -55
14 -62 19 -16 30 0 52 74 10 33 21 64 26 70 10 12 -1 -47 -18 -98 -7 -20 -11
-44 -7 -52 3 -9 -3 -47 -13 -86 -14 -55 -25 -76 -49 -95 -16 -13 -37 -29 -46
-37 -13 -12 -20 -10 -46 12 -17 14 -43 46 -57 71 -31 54 -35 46 -5 -11 18 -37
19 -39 2 -30 -10 5 -40 32 -67 60 -44 45 -50 56 -54 103 -6 79 27 156 99 234
33 35 59 68 59 73 0 5 5 22 10 36 9 22 13 25 25 15 8 -7 17 -27 21 -46z m212
-21 c20 -18 20 -18 -19 -98 -22 -44 -37 -69 -35 -55 3 14 8 58 12 98 3 39 10
72 14 72 4 0 17 -8 28 -17z m-137 -63 c11 -6 19 -21 19 -35 0 -36 -47 -36 -56
-1 -5 23 1 46 12 46 3 0 14 -5 25 -10z m62 -26 c7 -8 -3 -34 -13 -34 -4 0 -10
9 -13 20 -5 19 12 28 26 14z m-23 -48 c0 -3 -4 -8 -10 -11 -5 -3 -10 -1 -10 4
0 6 5 11 10 11 6 0 10 -2 10 -4z m1217 -478 c-3 -7 -5 -2 -5 12 0 14 2 19 5
13 2 -7 2 -19 0 -25z m0 -40 c-3 -8 -6 -5 -6 6 -1 11 2 17 5 13 3 -3 4 -12 1
-19z"/>
<path d="M762 1923 c-29 -43 -36 -61 -13 -33 25 29 44 60 37 60 -3 0 -13 -12
-24 -27z"/>
<path d="M912 1745 c-29 -6 -52 -15 -51 -20 4 -25 12 -34 40 -45 23 -10 35
-10 59 0 17 7 30 16 30 21 0 12 -17 11 -25 -1 -3 -5 -17 -10 -31 -10 -14 0
-23 4 -20 9 4 5 0 11 -6 14 -7 2 9 11 36 19 62 18 39 27 -32 13z"/>
<path d="M1199 1473 c-13 -16 -12 -17 4 -4 9 7 17 15 17 17 0 8 -8 3 -21 -13z"/>
<path d="M1400 897 c14 -8 36 -17 50 -21 l25 -7 -25 14 c-14 8 -36 17 -50 21
l-25 7 25 -14z"/>
<path d="M1327 720 c3 -14 12 -47 19 -75 l13 -50 -6 45 c-3 25 -11 59 -19 75
-11 24 -12 25 -7 5z"/>
<path d="M522 824 c-2 -101 5 -142 28 -154 22 -12 76 5 84 26 5 13 3 13 -16
-1 -30 -20 -64 -19 -73 3 -4 9 -11 60 -15 112 l-7 95 -1 -81z"/>
<path d="M1308 2053 c7 -3 16 -2 19 1 4 3 -2 6 -13 5 -11 0 -14 -3 -6 -6z"/>
<path d="M1341 2046 c2 -2 18 -6 34 -10 22 -5 26 -4 15 4 -14 9 -59 15 -49 6z"/>
<path d="M1404 2016 c-8 -8 0 -11 28 -11 21 0 38 0 38 1 0 1 -12 6 -28 12 -19
6 -31 6 -38 -2z"/>
<path d="M1348 1994 c-4 -3 -3 -15 2 -25 6 -9 7 -25 4 -33 -3 -9 -1 -16 5 -16
6 0 11 -9 11 -19 0 -15 6 -19 23 -17 36 4 47 15 45 45 -2 22 -7 28 -23 27 -11
-1 -29 9 -40 22 -11 13 -23 20 -27 16z"/>
<path d="M1398 1973 c7 -3 16 -2 19 1 4 3 -2 6 -13 5 -11 0 -14 -3 -6 -6z"/>
<path d="M1525 1960 c27 -12 43 -12 25 0 -8 5 -22 9 -30 9 -10 0 -8 -3 5 -9z"/>
<path d="M601 1910 c-13 -11 -19 -20 -13 -20 5 0 15 7 22 15 7 8 16 12 21 9 5
-3 9 0 9 5 0 16 -12 13 -39 -9z"/>
<path d="M1593 1922 c4 -6 22 -21 39 -34 17 -12 28 -17 25 -10 -4 6 -22 21
-39 34 -17 12 -28 17 -25 10z"/>
<path d="M509 1834 c-13 -14 -17 -24 -10 -29 7 -4 10 -1 9 7 -2 7 4 12 14 10
9 -1 21 6 27 16 14 27 -13 25 -40 -4z"/>
<path d="M1678 1850 c20 -8 27 -21 23 -42 0 -4 6 -5 14 -2 8 4 15 1 15 -6 0
-7 12 -24 26 -37 14 -13 23 -30 20 -38 -3 -10 0 -12 11 -8 13 5 15 2 10 -11
-4 -9 -3 -15 2 -11 5 3 11 -1 14 -7 2 -7 7 -10 11 -7 10 10 -128 174 -149 176
-17 3 -17 2 3 -7z"/>
<path d="M1345 1799 c-4 -6 -5 -12 -2 -15 2 -3 7 2 10 11 7 17 1 20 -8 4z"/>
<path d="M444 1753 c-31 -46 -43 -73 -34 -73 5 0 12 10 16 23 9 29 40 68 48
60 3 -3 6 -1 6 5 0 21 -17 13 -36 -15z"/>
<path d="M680 1771 c0 -5 5 -13 10 -16 6 -3 10 -2 10 4 0 5 -4 13 -10 16 -5 3
-10 2 -10 -4z"/>
<path d="M660 1751 c0 -5 7 -15 17 -22 15 -13 15 -12 4 9 -12 23 -21 28 -21
13z"/>
<path d="M445 1720 c-3 -6 1 -7 9 -4 18 7 21 14 7 14 -6 0 -13 -4 -16 -10z"/>
<path d="M387 1663 c-2 -5 -17 -30 -32 -58 -16 -27 -24 -45 -18 -40 14 14 66
105 60 105 -3 0 -8 -3 -10 -7z"/>
<path d="M1830 1663 c0 -6 5 -15 11 -18 6 -4 8 -14 5 -22 -3 -8 -2 -12 3 -9 5
3 14 -8 21 -24 7 -17 15 -29 17 -26 2 2 -5 21 -16 43 -28 53 -41 70 -41 56z"/>
<path d="M1440 1581 c0 -21 97 -31 203 -20 85 8 127 0 127 -27 0 -20 24 -13
28 9 2 9 -9 23 -23 33 -23 15 -36 16 -125 5 -89 -11 -138 -9 -192 6 -10 2 -18
0 -18 -6z"/>
<path d="M750 1544 c0 -6 7 -19 16 -30 14 -18 14 -18 3 6 -14 31 -19 36 -19
24z"/>
<path d="M1598 1543 c7 -3 16 -2 19 1 4 3 -2 6 -13 5 -11 0 -14 -3 -6 -6z"/>
<path d="M1885 1540 c-4 -7 -3 -15 2 -19 5 -3 13 -15 16 -25 4 -10 10 -17 12
-14 3 3 -1 20 -8 38 -10 22 -17 28 -22 20z"/>
<path d="M316 1524 c-9 -24 -2 -26 12 -4 7 11 8 20 3 20 -5 0 -12 -7 -15 -16z"/>
<path d="M1780 1500 c0 -5 5 -10 10 -10 6 0 10 5 10 10 0 6 -4 10 -10 10 -5 0
-10 -4 -10 -10z"/>
<path d="M1817 1477 c-3 -8 1 -14 8 -14 7 0 11 6 8 14 -3 7 -6 13 -8 13 -2 0
-5 -6 -8 -13z"/>
<path d="M1787 1473 c-10 -9 -9 -23 1 -23 5 0 9 7 9 15 0 17 -1 18 -10 8z"/>
<path d="M1922 1445 c0 -11 4 -31 8 -45 6 -20 8 -21 8 -5 0 11 -4 31 -8 45 -6
20 -8 21 -8 5z"/>
<path d="M281 1404 c0 -11 3 -14 6 -6 3 7 2 16 -1 19 -3 4 -6 -2 -5 -13z"/>
<path d="M624 1378 l-19 -23 23 19 c21 18 27 26 19 26 -2 0 -12 -10 -23 -22z"/>
<path d="M1866 1367 c3 -10 9 -15 12 -12 3 3 0 11 -7 18 -10 9 -11 8 -5 -6z"/>
<path d="M1901 1364 c0 -11 3 -14 6 -6 3 7 2 16 -1 19 -3 4 -6 -2 -5 -13z"/>
<path d="M271 1354 c0 -11 3 -14 6 -6 3 7 2 16 -1 19 -3 4 -6 -2 -5 -13z"/>
<path d="M1891 1304 c0 -11 3 -14 6 -6 3 7 2 16 -1 19 -3 4 -6 -2 -5 -13z"/>
<path d="M263 1275 c0 -22 2 -30 4 -17 2 12 2 30 0 40 -3 9 -5 -1 -4 -23z"/>
<path d="M262 1150 c0 -19 2 -27 5 -17 2 9 2 25 0 35 -3 9 -5 1 -5 -18z"/>
<path d="M367 975 c-18 -25 -18 -25 7 -23 13 1 22 7 19 12 -4 5 1 7 9 3 12 -4
14 -1 11 14 -7 26 -24 23 -46 -6z"/>
<path d="M329 893 c-13 -16 -12 -17 4 -4 9 7 17 15 17 17 0 8 -8 3 -21 -13z"/>
<path d="M1921 657 c-13 -108 -8 -139 18 -123 12 8 14 128 3 191 -7 35 -9 27
-21 -68z"/>
</g>
</svg>
