<?xml version="1.0" standalone="no"?>
<!DOCTYPE svg PUBLIC "-//W3C//DTD SVG 20010904//EN"
 "http://www.w3.org/2000/svg">
<svg version="1.0" xmlns="http://www.w3.org/2000/svg"
 width="24.000000pt" height="24.000000pt" viewBox="0 0 240.000000 240.000000"
 preserveAspectRatio="xMidYMid meet">
<g transform="translate(0.000000,240.000000) scale(0.100000,-0.100000)"
    style="fill:#0000FF; stroke:none;">
<path d="M590 2363 c0 -84 -68 -282 -91 -267 -5 3 -9 2 -8 -3 4 -22 -2 -43
-11 -38 -5 3 -10 -1 -10 -10 0 -10 -5 -13 -12 -9 -6 4 -8 3 -5 -3 8 -13 -77
-96 -88 -86 -4 5 -5 2 -1 -4 4 -8 1 -13 -9 -13 -9 0 -13 -4 -10 -10 5 -9 -16
-15 -38 -11 -5 1 -6 -3 -3 -8 15 -23 -183 -91 -266 -91 l-38 0 0 -905 0 -905
1200 0 1200 0 0 1200 0 1200 -905 0 -905 0 0 -37z m636 -94 c18 -6 39 -18 49
-29 17 -18 18 -18 56 2 31 16 49 19 82 13 23 -4 68 -10 99 -14 59 -7 110 -41
123 -82 5 -13 14 -16 45 -12 72 10 79 6 213 -123 16 -15 30 -42 33 -63 5 -30
10 -37 30 -39 39 -3 80 -29 102 -64 12 -18 30 -39 42 -46 31 -19 61 -93 54
-131 -6 -28 -2 -36 34 -67 42 -36 61 -75 63 -134 5 -132 4 -148 -14 -168 -16
-17 -16 -20 -2 -32 30 -25 47 -71 43 -114 -3 -22 -1 -54 4 -71 11 -41 -6 -92
-42 -130 -28 -29 -29 -34 -19 -64 16 -46 5 -98 -31 -142 -16 -21 -30 -42 -30
-48 0 -21 -62 -80 -90 -86 -26 -6 -29 -10 -24 -31 7 -26 -29 -109 -50 -117 -8
-3 -24 -23 -36 -45 -27 -47 -67 -73 -119 -75 -35 -1 -40 -5 -57 -42 -20 -43
-74 -85 -108 -85 -11 0 -44 -10 -73 -22 -48 -20 -55 -20 -90 -7 -38 15 -38 15
-68 -17 -21 -22 -44 -34 -70 -38 -22 -4 -54 -11 -71 -16 -58 -19 -120 -12
-153 16 -26 21 -33 23 -52 13 -58 -31 -130 -28 -170 7 -8 8 -27 14 -42 14 -29
0 -92 50 -102 79 -4 15 -14 17 -55 13 -42 -4 -57 0 -88 20 -20 14 -48 28 -60
32 -44 14 -92 66 -98 106 -6 34 -10 39 -40 44 -44 9 -92 50 -115 100 -10 23
-28 57 -40 76 -16 27 -19 46 -15 82 4 36 2 48 -8 48 -20 0 -75 66 -82 98 -3
15 -14 43 -25 63 -24 46 -24 95 0 142 16 32 17 38 4 49 -40 32 -53 101 -31
155 6 15 10 34 9 40 -5 31 22 94 50 117 25 21 28 29 19 45 -14 28 -12 91 5
121 8 14 14 34 15 44 0 11 9 39 21 62 15 32 32 48 65 64 37 18 44 26 44 51 0
41 23 93 50 112 16 11 18 16 8 21 -7 3 -3 3 8 1 24 -6 58 20 48 36 -3 5 0 8 8
7 7 -2 12 2 11 7 -1 6 6 12 15 13 9 1 37 5 62 8 42 5 48 9 66 47 14 30 32 48
61 63 23 12 56 33 73 47 40 35 87 43 133 23 34 -14 38 -13 49 2 37 50 67 62
157 61 47 -1 100 -5 117 -10z"/>
<path d="M1004 2241 c-18 -11 -35 -24 -39 -30 -3 -6 11 0 32 15 26 17 46 24
63 20 14 -2 32 -1 40 5 11 6 3 9 -25 9 -22 0 -54 -9 -71 -19z"/>
<path d="M1182 2225 c6 -14 17 -25 23 -25 17 0 45 -33 45 -53 0 -23 -15 -21
-31 3 -13 20 -14 18 -16 -20 -3 -39 -2 -40 31 -40 37 0 46 12 46 63 -1 47 -49
97 -94 97 -13 0 -14 -4 -4 -25z"/>
<path d="M1123 2234 c-9 -4 -9 -11 -1 -30 13 -28 21 -30 38 -9 10 12 10 18 0
30 -13 16 -17 17 -37 9z"/>
<path d="M1014 2216 c-17 -8 -36 -26 -43 -44 l-12 -30 -38 21 c-25 14 -45 18
-64 13 -34 -8 -35 -22 0 -31 14 -3 47 -24 72 -45 25 -21 48 -37 52 -35 3 3 12
26 19 52 7 27 24 59 36 74 38 41 32 48 -22 25z"/>
<path d="M1348 2214 c-35 -18 -48 -43 -48 -88 0 -38 2 -40 43 -50 26 -6 27 -5
27 36 -1 40 -2 42 -15 24 -10 -13 -18 -17 -25 -10 -13 13 16 54 39 54 17 0 51
29 51 43 0 12 -44 7 -72 -9z"/>
<path d="M1505 2210 c3 -5 18 -10 33 -10 15 0 39 -12 55 -27 l30 -28 -17 26
c-18 28 -55 49 -87 49 -11 0 -17 -4 -14 -10z"/>
<path d="M823 2199 c-34 -10 -49 -24 -34 -33 5 -3 14 1 21 9 7 8 18 15 26 15
7 0 16 5 19 10 3 6 5 10 3 9 -2 0 -17 -5 -35 -10z"/>
<path d="M1066 2180 c-31 -37 -30 -55 4 -55 33 0 52 33 36 63 l-13 24 -27 -32z"/>
<path d="M1433 2203 c-16 -6 -17 -25 -2 -40 9 -9 16 -6 29 10 22 27 7 44 -27
30z"/>
<path d="M1543 2156 c9 -13 19 -46 23 -74 10 -77 15 -80 72 -44 27 17 62 32
76 34 38 4 34 21 -8 32 -27 7 -40 5 -60 -7 -33 -22 -36 -21 -36 7 0 31 -36 76
-62 76 -19 0 -19 -1 -5 -24z"/>
<path d="M1162 2158 c-15 -15 -16 -55 -1 -63 15 -10 19 -3 26 39 6 37 -3 46
-25 24z"/>
<path d="M1476 2154 c-11 -30 -6 -53 15 -65 34 -18 46 3 26 46 -18 38 -31 44
-41 19z"/>
<path d="M1397 2144 c-11 -11 -8 -74 3 -74 6 0 16 11 22 25 9 21 9 29 -3 41
-8 8 -18 11 -22 8z"/>
<path d="M753 2133 c-22 -8 -16 -49 7 -49 15 0 20 7 20 28 0 28 -4 31 -27 21z"/>
<path d="M800 2111 c0 -22 25 -51 45 -51 7 0 21 8 30 17 16 15 15 17 -7 28
-50 26 -68 28 -68 6z"/>
<path d="M1717 2122 c13 -4 32 -15 43 -24 28 -25 49 -23 25 2 -11 11 -36 22
-55 25 -22 3 -27 2 -13 -3z"/>
<path d="M681 2094 c-55 -70 6 -180 71 -130 16 12 16 15 -8 47 -24 32 -25 33
-24 9 3 -39 1 -43 -15 -30 -8 7 -15 23 -15 35 0 12 7 28 15 35 16 14 21 60 6
60 -5 0 -19 -12 -30 -26z"/>
<path d="M1105 2111 c-5 -9 -19 -11 -41 -8 -27 5 -36 2 -44 -14 -10 -18 -8
-19 47 -13 32 4 59 7 59 8 1 1 -2 10 -6 20 -5 15 -9 16 -15 7z"/>
<path d="M1446 2073 c-4 -9 -5 -17 -3 -19 7 -8 97 -27 102 -22 12 12 -7 36
-26 31 -10 -3 -30 2 -43 10 -22 15 -25 15 -30 0z"/>
<path d="M896 2065 c-3 -9 -19 -18 -36 -21 -17 -4 -30 -13 -30 -21 0 -15 14
-13 77 14 29 11 33 16 23 28 -16 19 -26 19 -34 0z"/>
<path d="M750 2043 c0 -14 30 -53 41 -53 6 0 9 12 7 28 -2 19 -9 28 -25 30
-13 2 -23 0 -23 -5z"/>
<path d="M1722 2040 c-40 -9 -46 -15 -39 -35 4 -9 19 -15 37 -15 24 0 33 6 40
26 15 39 18 37 -38 24z"/>
<path d="M1788 2025 c-3 -15 0 -26 9 -30 34 -12 46 27 14 44 -16 9 -20 7 -23
-14z"/>
<path d="M1115 2019 c-319 -29 -598 -260 -701 -579 -38 -121 -45 -298 -15
-423 111 -467 575 -742 1029 -611 439 127 693 583 567 1018 -45 154 -110 261
-228 372 -41 40 -106 90 -143 112 -85 51 -232 100 -316 108 -35 3 -74 6 -88 8
-14 1 -61 -1 -105 -5z m255 -24 c354 -83 604 -363 640 -717 27 -267 -85 -536
-293 -708 -78 -64 -218 -134 -321 -160 -107 -27 -284 -27 -388 -1 -482 124
-745 643 -556 1100 102 244 325 430 582 486 84 18 256 18 336 0z"/>
<path d="M1660 1635 c-52 -13 -168 -41 -258 -61 -89 -21 -170 -43 -179 -49 -9
-7 60 5 153 27 262 60 367 87 378 98 12 12 20 13 -94 -15z"/>
<path d="M1676 1562 c-14 -27 -13 -28 20 -50 33 -21 34 -21 44 -3 16 31 12 47
-15 65 -32 21 -32 21 -49 -12z"/>
<path d="M1520 1528 c0 -12 7 -18 23 -17 15 0 17 2 7 6 -8 3 -18 11 -22 17 -5
7 -8 4 -8 -6z"/>
<path d="M836 1494 c-9 -23 -7 -64 3 -64 5 0 14 7 21 16 11 12 11 15 -1 12
-10 -2 -13 5 -12 25 2 30 -2 35 -11 11z"/>
<path d="M1322 1460 c-6 -11 -12 -23 -12 -27 0 -5 5 0 11 10 5 9 17 17 24 17
8 0 15 5 15 10 0 17 -25 11 -38 -10z"/>
<path d="M1225 1460 c-3 -6 5 -14 20 -20 14 -5 30 -22 36 -37 8 -22 12 -24 19
-13 13 20 12 33 0 25 -5 -3 -10 -1 -10 4 0 14 -37 51 -49 51 -6 0 -13 -5 -16
-10z"/>
<path d="M1666 1420 c-33 -40 -44 -96 -25 -129 13 -23 23 -27 80 -31 62 -5
119 -29 119 -50 0 -29 -141 -90 -210 -90 -52 0 -95 38 -86 76 4 13 4 24 2 24
-3 0 -31 -15 -62 -34 l-57 -35 -28 44 c-46 72 -80 81 -131 36 -28 -25 -32 -35
-33 -82 0 -47 3 -55 25 -67 16 -8 45 -11 83 -8 54 4 57 3 57 -18 0 -27 -111
-136 -185 -183 -64 -40 -147 -67 -181 -59 -25 7 -23 9 42 54 80 55 114 100
114 151 0 59 -11 67 -137 101 -101 27 -112 38 -90 86 23 47 101 129 138 144
27 11 32 10 53 -9 21 -19 24 -20 30 -6 11 31 6 65 -14 85 -28 28 -68 11 -133
-60 -80 -86 -120 -186 -103 -254 8 -33 31 -45 136 -70 56 -14 86 -26 88 -36 2
-16 -77 -71 -161 -111 -60 -29 -73 -19 -70 58 3 77 -6 61 -15 -28 l-7 -74 -74
-18 c-161 -40 -261 24 -261 166 0 52 30 161 50 181 6 6 10 17 10 25 0 12 -3
11 -18 -2 -14 -13 -21 -14 -30 -5 -19 19 -14 63 13 131 14 35 18 53 10 42 -19
-24 -55 -137 -55 -170 0 -33 10 -55 25 -55 10 0 8 -14 -6 -61 -27 -87 -26
-192 4 -249 33 -66 65 -84 151 -88 58 -3 86 1 147 22 43 15 75 22 77 16 7 -19
61 -40 105 -40 57 0 145 44 224 112 94 82 124 123 146 199 9 30 22 46 55 65
40 24 42 24 42 5 0 -50 41 -81 107 -81 51 0 151 49 190 93 67 77 49 218 -37
291 -43 35 -81 34 -114 -4z m82 -56 c12 -8 22 -19 22 -25 0 -15 -76 -10 -90 6
-27 33 26 48 68 19z m-410 -190 c12 -8 20 -20 17 -25 -10 -14 -71 -11 -85 6
-27 33 26 48 68 19z"/>
<path d="M887 1422 c-9 -10 -17 -23 -17 -28 0 -5 5 -1 11 9 7 12 17 16 31 11
14 -4 19 -2 16 7 -7 20 -23 21 -41 1z"/>
<path d="M777 1423 c-13 -12 -7 -24 18 -33 14 -5 30 -21 37 -35 11 -24 28 -34
28 -16 0 5 3 18 6 28 5 15 4 15 -5 3 -5 -8 -11 -12 -13 -10 -2 3 -8 14 -14 24
-13 24 -48 48 -57 39z"/>
<path d="M1478 1405 l-11 -24 -27 19 c-16 11 -32 20 -37 20 -9 0 -37 -50 -31
-55 2 -1 17 -11 34 -23 l31 -21 12 25 11 25 35 -21 34 -21 14 28 c14 26 14 28
-16 50 -17 13 -32 23 -34 23 -2 0 -8 -11 -15 -25z"/>
<path d="M730 1258 c1 -12 7 -34 15 -48 8 -14 15 -50 16 -80 l2 -55 9 57 c8
43 7 67 -4 99 -16 48 -38 64 -38 27z"/>
<path d="M1101 1183 c-1 -36 9 -42 29 -18 11 13 10 14 -3 9 -11 -4 -17 2 -20
18 -3 17 -5 15 -6 -9z"/>
<path d="M931 1024 c0 -11 3 -14 6 -6 3 7 2 16 -1 19 -3 4 -6 -2 -5 -13z"/>
<path d="M1606 967 c-34 -45 -33 -57 1 -17 17 21 32 30 45 27 11 -3 18 0 18 9
0 26 -39 14 -64 -19z"/>
<path d="M1690 987 c0 -17 45 -58 93 -85 28 -16 37 -18 37 -8 0 8 -25 28 -55
45 -31 18 -53 36 -50 40 2 5 -2 11 -10 15 -9 3 -15 0 -15 -7z"/>
<path d="M1420 910 c0 -6 7 -10 15 -10 8 0 15 2 15 4 0 2 -7 6 -15 10 -8 3
-15 1 -15 -4z"/>
<path d="M1570 891 c0 -16 10 -24 45 -33 25 -7 45 -15 45 -19 0 -14 -77 -59
-122 -70 -60 -16 -93 -3 -107 43 -7 26 -9 28 -10 10 -1 -25 16 -63 33 -74 22
-15 84 -7 130 16 38 19 48 21 53 10 3 -8 14 -14 26 -14 25 0 143 75 151 96 3
9 -11 3 -37 -14 -64 -44 -107 -64 -124 -58 -14 6 -14 8 1 24 9 10 16 28 16 40
0 16 -8 23 -35 28 -20 3 -43 13 -50 21 -13 13 -15 12 -15 -6z"/>
<path d="M1635 2007 c-17 -14 -16 -16 24 -45 40 -29 61 -33 61 -12 0 5 -9 12
-20 15 -11 4 -26 17 -33 31 -11 22 -15 23 -32 11z"/>
<path d="M1847 1999 c-3 -12 -1 -31 4 -42 14 -24 3 -67 -16 -67 -12 0 -14 7
-8 27 l6 28 -34 -30 -35 -30 22 -17 c30 -24 50 -22 79 7 32 31 35 103 6 129
-17 16 -19 16 -24 -5z"/>
<path d="M529 1990 l-24 -19 25 -2 c14 -1 33 0 44 1 32 3 66 -10 66 -25 0 -12
-7 -14 -26 -9 l-27 7 23 -31 c22 -30 24 -30 46 -14 31 23 30 48 -5 83 -36 35
-87 39 -122 9z"/>
<path d="M486 1944 c-4 -9 -5 -17 -4 -18 2 -1 13 -6 24 -13 19 -10 23 -9 28
10 6 24 7 23 -20 31 -15 5 -24 2 -28 -10z"/>
<path d="M1748 1935 c-15 -33 -6 -40 25 -20 37 24 42 45 11 45 -16 0 -28 -8
-36 -25z"/>
<path d="M406 1909 c-14 -17 -26 -38 -26 -47 1 -11 6 -8 16 10 8 15 23 32 34
38 11 6 20 15 20 20 0 19 -18 10 -44 -21z"/>
<path d="M562 1905 c3 -29 31 -55 45 -42 8 9 -20 60 -37 65 -7 3 -10 -6 -8
-23z"/>
<path d="M470 1868 c0 -46 15 -66 37 -52 27 17 28 50 1 68 -32 23 -38 20 -38
-16z"/>
<path d="M416 1868 c-18 -27 -18 -61 -2 -100 6 -13 3 -15 -13 -11 -28 7 -79
-15 -92 -39 -14 -25 -6 -32 19 -19 12 6 50 11 86 11 36 0 66 2 66 4 0 2 -7 23
-16 47 -9 24 -20 64 -23 89 l-6 45 -19 -27z"/>
<path d="M1879 1861 c-34 -35 -36 -51 -9 -76 20 -18 21 -18 53 14 l32 33 -32
-7 c-37 -7 -45 8 -14 25 13 7 28 7 46 0 14 -5 38 -10 53 -10 l27 1 -28 24
c-40 35 -90 34 -128 -4z"/>
<path d="M541 1821 c-6 -11 -20 -23 -31 -26 -11 -3 -20 -13 -20 -20 0 -29 19
-24 49 14 18 22 27 42 22 46 -6 3 -15 -3 -20 -14z"/>
<path d="M1997 1801 c4 -14 14 -21 30 -21 35 0 27 34 -9 38 -22 3 -26 0 -21
-17z"/>
<path d="M1939 1793 c-42 -50 -43 -53 -21 -53 26 0 52 25 52 51 0 24 -12 24
-31 2z"/>
<path d="M2080 1791 c0 -7 11 -26 25 -43 16 -19 25 -24 25 -14 0 19 -49 76
-50 57z"/>
<path d="M285 1734 c-14 -15 -25 -30 -25 -35 0 -4 -3 -15 -6 -23 -5 -12 -2
-15 10 -10 9 3 16 15 16 27 0 11 10 31 22 44 12 13 18 23 14 23 -4 0 -18 -12
-31 -26z"/>
<path d="M2002 1748 c-18 -18 -14 -56 7 -68 16 -8 21 -5 30 22 6 17 11 37 11
44 0 17 -32 18 -48 2z"/>
<path d="M2074 1715 c-4 -21 -20 -59 -35 -84 -16 -25 -29 -48 -29 -52 0 -3 26
-9 57 -13 31 -4 72 -16 90 -27 26 -16 33 -18 33 -6 0 27 -40 66 -75 73 -33 6
-34 7 -20 27 19 27 19 77 1 102 -13 19 -15 17 -22 -20z"/>
<path d="M1942 1712 c-9 -6 -5 -19 18 -50 17 -23 34 -42 39 -42 8 0 25 31 19
34 -26 10 -44 27 -46 45 -4 23 -10 25 -30 13z"/>
<path d="M332 1666 c-33 -12 -33 -12 -13 -30 29 -26 71 -15 71 19 0 28 -9 29
-58 11z"/>
<path d="M417 1661 c3 -11 -4 -28 -16 -40 -12 -12 -16 -23 -10 -27 6 -3 11 -4
13 -3 11 16 46 78 46 83 0 3 -9 6 -19 6 -14 0 -18 -5 -14 -19z"/>
<path d="M267 1633 c-9 -9 -8 -25 2 -41 7 -11 12 -11 28 -1 19 11 19 14 4 31
-17 19 -24 22 -34 11z"/>
<path d="M2183 1581 c15 -18 27 -43 27 -56 0 -13 5 -27 10 -30 6 -3 10 1 10
10 0 28 -31 85 -53 97 -18 9 -17 6 6 -21z"/>
<path d="M237 1584 c-25 -26 9 -106 52 -123 41 -18 63 -11 74 22 11 33 11 32
-32 41 -34 6 -34 6 -16 -14 10 -11 15 -23 11 -27 -13 -13 -41 14 -54 53 -15
44 -25 58 -35 48z"/>
<path d="M320 1570 c-13 -9 -13 -11 0 -20 19 -12 57 -13 65 -1 3 6 -3 15 -14
20 -24 13 -32 13 -51 1z"/>
<path d="M2030 1535 c0 -17 21 -78 30 -89 18 -19 28 5 15 31 -9 17 -11 32 -5
44 8 13 5 18 -15 21 -16 3 -25 1 -25 -7z"/>
<path d="M2092 1504 c4 -34 31 -53 55 -38 28 17 26 32 -6 48 -42 22 -53 20
-49 -10z"/>
<path d="M2175 1460 c-17 -18 -17 -22 -4 -36 14 -13 17 -13 32 4 14 15 15 21
4 36 -12 16 -14 16 -32 -4z"/>
<path d="M206 1414 c-32 -32 -35 -65 -6 -57 10 3 26 16 35 29 9 15 25 24 40
24 32 0 34 -30 3 -31 -18 0 -15 -3 12 -13 35 -13 35 -13 43 18 11 38 -10 56
-64 56 -26 0 -44 -7 -63 -26z"/>
<path d="M2083 1413 c-28 -11 -10 -23 33 -23 40 0 45 2 34 15 -12 15 -43 18
-67 8z"/>
<path d="M2203 1397 c-12 -16 -25 -37 -28 -47 -6 -20 -42 -37 -53 -25 -4 3 4
15 18 25 l25 20 -46 0 -46 0 6 -32 c19 -91 160 -34 149 60 l-3 27 -22 -28z"/>
<path d="M250 1342 c0 -15 24 -32 47 -32 30 0 30 26 1 34 -32 8 -48 7 -48 -2z"/>
<path d="M193 1333 c-7 -2 -13 -14 -13 -25 0 -16 5 -19 23 -14 12 3 26 6 30 6
4 0 3 9 -3 20 -11 20 -16 22 -37 13z"/>
<path d="M146 1274 c-18 -47 2 -112 45 -149 l24 -20 -21 25 c-37 44 -46 68
-38 115 6 45 2 59 -10 29z"/>
<path d="M204 1269 c-9 -14 51 -74 65 -65 15 9 14 49 -1 64 -15 15 -55 16 -64
1z"/>
<path d="M307 1273 c-4 -3 -7 -18 -7 -33 0 -14 -6 -32 -12 -38 -10 -10 -10
-15 2 -22 12 -8 16 0 23 42 7 51 6 64 -6 51z"/>
<path d="M2108 1269 c-11 -6 -18 -22 -18 -42 0 -32 0 -32 42 -28 42 3 42 4 20
19 -27 18 -29 32 -4 32 20 0 52 -29 52 -47 0 -5 11 -15 25 -21 20 -9 25 -9 25
3 0 66 -87 117 -142 84z"/>
<path d="M170 1215 c0 -27 29 -73 50 -80 23 -7 26 -21 6 -32 -19 -11 -36 -48
-36 -77 0 -34 16 -33 35 2 8 15 33 41 54 57 22 17 40 33 41 37 0 9 -75 58 -89
58 -5 0 -16 11 -25 25 -19 28 -36 33 -36 10z"/>
<path d="M2095 1171 c-10 -17 33 -33 55 -21 11 6 20 15 20 20 0 13 -67 13 -75
1z"/>
<path d="M2193 1151 c-10 -16 -8 -20 13 -30 20 -9 26 -8 30 4 6 15 -11 45 -25
45 -3 0 -11 -8 -18 -19z"/>
<path d="M2086 1104 c-3 -9 -6 -33 -6 -54 0 -33 3 -37 19 -33 16 4 18 9 10 30
-6 15 -5 31 1 43 13 25 13 30 -4 30 -8 0 -17 -7 -20 -16z"/>
<path d="M2136 1089 c-16 -24 -11 -49 10 -49 7 0 26 11 41 25 24 21 26 26 13
35 -24 16 -48 12 -64 -11z"/>
<path d="M2250 1090 c-1 -8 -1 -25 0 -37 0 -12 -6 -37 -15 -55 l-16 -33 20 25
c24 30 32 67 21 94 -6 14 -9 16 -10 6z"/>
<path d="M303 1069 c-9 -9 -8 -15 3 -26 8 -8 14 -25 14 -39 0 -13 5 -24 10
-24 7 0 8 14 4 38 -9 52 -17 65 -31 51z"/>
<path d="M2200 1038 c-14 -13 -47 -31 -74 -40 -27 -10 -51 -20 -54 -22 -3 -3
8 -22 24 -41 16 -20 38 -54 50 -76 23 -46 34 -42 34 13 0 25 -7 45 -20 58 -25
25 -25 30 -1 30 23 0 71 54 71 81 0 24 -1 24 -30 -3z"/>
<path d="M161 1018 c-1 -42 7 -68 21 -68 6 0 7 8 3 18 -4 9 -11 33 -15 52 l-8
35 -1 -37z"/>
<path d="M251 1014 c-28 -35 -27 -54 3 -54 29 0 49 22 44 51 -4 33 -23 34 -47
3z"/>
<path d="M212 927 c2 -11 13 -23 24 -28 18 -6 23 -3 26 16 4 19 0 24 -24 27
-24 4 -28 1 -26 -15z"/>
<path d="M318 943 c-15 -4 -35 -39 -26 -48 1 -2 18 3 35 10 23 10 31 19 27 29
-6 16 -7 17 -36 9z"/>
<path d="M2050 937 c0 -3 -9 -28 -19 -56 -19 -47 -19 -49 -2 -54 14 -3 17 0
14 14 -3 11 5 28 20 43 24 24 24 25 6 42 -10 9 -19 14 -19 11z"/>
<path d="M330 888 c-31 -16 -28 -23 8 -19 6 1 12 -5 12 -14 0 -20 -53 -20 -69
-1 -7 8 -25 19 -42 25 l-29 10 16 -30 c27 -54 112 -71 147 -30 12 13 12 22 3
46 l-11 30 -35 -17z"/>
<path d="M2202 865 c-1 -17 -9 -41 -18 -53 -8 -12 -14 -28 -11 -35 7 -23 38
54 34 86 l-4 32 -1 -30z"/>
<path d="M2074 866 c-12 -32 0 -61 29 -64 30 -4 32 1 16 47 -11 32 -36 41 -45
17z"/>
<path d="M342 785 c-36 -30 -47 -70 -32 -111 l12 -29 13 25 c8 14 12 34 9 46
-3 12 3 30 15 45 22 27 42 18 23 -11 -18 -29 -15 -32 18 -15 34 18 34 16 18
50 -14 32 -38 32 -76 0z"/>
<path d="M1990 791 c0 -11 48 -51 61 -51 15 0 10 27 -7 44 -17 17 -54 22 -54
7z"/>
<path d="M2090 751 c0 -17 4 -22 16 -17 9 3 20 6 25 6 5 0 9 9 9 19 0 14 -7
19 -25 17 -19 -1 -25 -6 -25 -25z"/>
<path d="M1964 745 c-23 -35 -7 -69 39 -84 42 -14 98 4 116 37 10 19 9 19 -27
10 -53 -14 -94 -15 -99 -1 -2 6 7 13 20 15 l24 3 -28 23 -28 23 -17 -26z"/>
<path d="M405 717 c-19 -14 -13 -37 9 -37 7 0 20 8 29 18 27 30 -2 44 -38 19z"/>
<path d="M351 658 c-5 -14 -5 -28 1 -35 15 -18 22 -16 34 11 9 19 8 25 -8 35
-16 10 -20 8 -27 -11z"/>
<path d="M470 671 c0 -5 7 -11 15 -14 8 -4 18 -20 22 -36 6 -21 12 -28 21 -22
9 5 5 16 -15 44 -27 36 -43 46 -43 28z"/>
<path d="M1902 653 l-19 -28 33 -22 c25 -16 34 -18 34 -8 0 8 -4 17 -10 20
-14 9 -12 25 3 25 20 0 39 -47 28 -68 -6 -11 -5 -26 4 -41 12 -24 13 -24 24
-3 19 35 13 88 -11 116 -36 39 -63 42 -86 9z"/>
<path d="M408 628 c-21 -21 -21 -22 -2 -29 26 -10 72 -11 78 -1 8 13 -23 52
-40 52 -8 0 -24 -10 -36 -22z"/>
<path d="M1860 596 c0 -19 38 -46 56 -39 21 8 17 17 -15 36 -35 21 -41 21 -41
3z"/>
<path d="M350 577 c0 -17 56 -77 72 -77 6 0 -1 9 -16 21 -14 11 -26 26 -26 34
0 7 -7 18 -15 25 -12 10 -15 10 -15 -3z"/>
<path d="M520 568 c-25 -5 -62 -7 -82 -4 -43 5 -47 -3 -17 -30 14 -13 35 -19
63 -18 l41 1 -3 -37 c-3 -29 2 -43 23 -66 l27 -29 -6 39 c-3 21 0 61 5 88 6
28 7 53 3 57 -5 4 -29 4 -54 -1z"/>
<path d="M1786 531 c-33 -33 -36 -40 -20 -43 12 -2 25 6 36 24 10 15 24 28 33
28 9 0 12 6 9 15 -9 22 -16 19 -58 -24z"/>
<path d="M600 521 c0 -14 6 -21 20 -21 11 0 28 -9 37 -19 9 -11 20 -18 25 -15
7 5 -7 19 -64 63 -16 12 -18 11 -18 -8z"/>
<path d="M1927 532 c-12 -2 -16 -9 -13 -19 3 -8 6 -21 6 -28 0 -8 7 -11 20 -8
13 3 20 14 20 29 0 26 -7 32 -33 26z"/>
<path d="M1832 514 c-37 -26 -28 -44 24 -44 37 0 45 3 42 16 -2 9 -12 23 -23
30 -18 12 -24 11 -43 -2z"/>
<path d="M595 438 c9 -51 8 -50 29 -42 40 15 27 84 -16 84 -18 0 -19 -5 -13
-42z"/>
<path d="M1715 469 c-4 -5 -6 -33 -4 -62 1 -29 -3 -65 -9 -80 -16 -38 -16 -38
12 -26 26 12 46 48 46 83 0 21 3 23 48 18 38 -3 52 0 72 17 l25 20 -40 1 c-22
0 -63 9 -92 20 -34 13 -54 16 -58 9z"/>
<path d="M694 436 c-7 -19 -2 -47 10 -49 5 -1 16 13 23 31 12 30 12 32 -7 32
-11 0 -23 -6 -26 -14z"/>
<path d="M1633 424 c-28 -17 -40 -30 -36 -40 4 -12 8 -11 20 6 9 12 25 20 44
20 22 0 29 5 29 20 0 25 -6 25 -57 -6z"/>
<path d="M1915 426 c-15 -23 -47 -40 -90 -49 -11 -3 -3 -3 18 -2 43 4 81 25
97 55 16 29 -6 26 -25 -4z"/>
<path d="M500 437 c0 -4 7 -21 15 -37 15 -30 75 -70 75 -51 0 6 -13 17 -30 26
-16 8 -36 28 -44 43 -9 15 -15 23 -16 19z"/>
<path d="M741 404 c-13 -30 -7 -44 11 -26 16 16 28 15 28 -3 0 -19 -31 -35
-67 -35 -15 0 -35 -5 -43 -10 -13 -9 -13 -11 0 -20 31 -20 80 -11 111 19 35
36 37 63 4 85 -31 20 -30 21 -44 -10z"/>
<path d="M632 376 c-20 -11 -21 -14 -8 -25 15 -13 56 -7 56 8 0 20 -26 29 -48
17z"/>
<path d="M1629 369 c-12 -24 2 -69 21 -69 12 0 30 42 30 71 0 26 -36 25 -51
-2z"/>
<path d="M820 361 c-20 -39 -12 -91 19 -122 16 -16 34 -29 39 -29 14 0 2 40
-21 71 -20 28 -20 60 0 66 7 3 13 -8 15 -24 l3 -28 17 33 c17 33 17 33 -8 42
-37 15 -52 12 -64 -9z"/>
<path d="M1544 348 c9 -45 23 -57 32 -24 8 33 -1 56 -22 56 -13 0 -15 -6 -10
-32z"/>
<path d="M1488 358 c-34 -12 -41 -31 -24 -73 18 -41 42 -55 98 -55 l43 1 -24
19 c-13 11 -34 20 -47 20 -24 0 -57 37 -48 52 3 5 15 2 25 -8 24 -22 28 -17
15 22 -10 28 -14 30 -38 22z"/>
<path d="M908 325 c-6 -14 -8 -28 -4 -32 11 -12 41 12 44 36 5 30 -26 27 -40
-4z"/>
<path d="M980 324 c0 -7 8 -10 20 -7 12 3 29 -2 41 -13 17 -16 21 -16 35 -3
13 14 9 17 -41 26 -42 7 -55 7 -55 -3z"/>
<path d="M1387 332 c-24 -3 -28 -7 -23 -25 3 -12 6 -30 6 -40 0 -10 5 -15 10
-12 6 3 10 15 10 26 0 12 5 19 13 16 17 -6 10 -49 -12 -67 -10 -8 -24 -25 -30
-37 -17 -34 11 -30 51 6 27 24 33 36 33 70 0 48 -19 68 -58 63z"/>
<path d="M1748 305 c-10 -13 -31 -26 -48 -30 -31 -7 -42 -25 -15 -25 17 0 93
66 85 73 -3 3 -13 -5 -22 -18z"/>
<path d="M1310 297 c0 -23 17 -47 32 -47 9 0 11 32 2 54 -9 24 -34 19 -34 -7z"/>
<path d="M1085 270 c-16 -22 -45 -48 -64 -57 -30 -15 -32 -18 -15 -24 28 -11
66 1 97 29 15 14 27 20 27 13 0 -25 48 -61 82 -61 l33 1 -26 23 c-14 12 -38
44 -54 69 -15 26 -32 47 -38 47 -7 -1 -25 -19 -42 -40z"/>
<path d="M1177 294 c4 -10 11 -13 22 -8 9 5 31 8 49 8 17 0 32 3 32 8 0 4 -25
8 -55 8 -45 0 -53 -3 -48 -16z"/>
<path d="M1592 289 c-10 -15 -8 -20 9 -30 17 -8 24 -8 36 3 12 13 11 17 -10
31 -22 14 -24 14 -35 -4z"/>
<path d="M977 282 c-19 -21 -21 -31 -8 -51 7 -11 14 -10 40 8 34 24 40 45 15
55 -24 9 -29 8 -47 -12z"/>
<path d="M1217 269 c-18 -10 -17 -13 9 -40 36 -37 54 -37 54 1 0 19 -7 33 -19
40 -23 12 -21 12 -44 -1z"/>
<path d="M902 238 c2 -15 11 -24 27 -26 19 -3 22 0 17 13 -3 9 -6 21 -6 26 0
5 -9 9 -21 9 -15 0 -20 -5 -17 -22z"/>
<path d="M1301 207 c-12 -30 15 -46 34 -20 19 25 18 30 -6 36 -14 4 -22 -1
-28 -16z"/>
<path d="M1135 180 c10 -11 20 -20 23 -20 3 0 -3 9 -13 20 -10 11 -20 20 -23
20 -3 0 3 -9 13 -20z"/>
<path d="M955 179 c-7 -10 36 -29 63 -28 9 0 26 5 37 10 18 8 17 9 -4 5 -13
-3 -39 1 -57 9 -20 8 -36 10 -39 4z"/>
<path d="M1177 148 c2 -5 29 -8 60 -8 31 0 53 3 49 7 -10 10 -115 10 -109 1z"/>
</g>
</svg>
